<?xml version="1.0" encoding="iso-8859-1"?>
<!-- Generator: Adobe Illustrator 19.0.0, SVG Export Plug-In . SVG Version: 6.00 Build 0)  -->
<svg version="1.1" id="Layer_1" xmlns="http://www.w3.org/2000/svg" xmlns:xlink="http://www.w3.org/1999/xlink" x="0px" y="0px"
	 viewBox="0 0 512 512" style="enable-background:new 0 0 512 512;" xml:space="preserve">
<path style="fill:#5286F9;" d="M488.727,66.494H256H23.273C10.42,66.494,0,76.914,0,89.767v332.466
	c0,12.853,10.42,23.273,23.273,23.273H256h232.727c12.853,0,23.273-10.42,23.273-23.273V89.767
	C512,76.914,501.58,66.494,488.727,66.494z"/>
<path style="fill:#FFFFFF;" d="M331.017,230.711c5.022,0,8.809-4.101,8.809-9.537c0-5.26-3.786-9.225-8.809-9.225H293.95
	c-5.319,0-9.329,3.787-9.329,8.809v70.802c0,4.997,4.098,8.912,9.329,8.912h37.067c5.022,0,8.809-4.011,8.809-9.329
	c0-5.291-3.869-9.435-8.809-9.435h-27.113v-16.429h10.141c5.022,0,8.809-3.876,8.809-9.017c0-5.232-3.869-9.329-8.809-9.329h-10.141
	v-16.221H331.017z"/>
<polygon style="fill:#679D5F;" points="134.372,264.318 142.969,264.318 138.69,250.065 "/>
<g>
	<path style="fill:#FFFFFF;" d="M170.468,288.804l-21.703-70.844c-1.344-4.032-5.289-6.636-10.052-6.636
		c-4.782,0-8.701,2.648-9.992,6.774l-21.69,70.474c-0.448,1.235-0.448,2.323-0.448,2.779c0,5.634,5.274,9.12,10.162,9.12
		c4.188,0,7.654-2.521,8.682-6.293l3.438-11.512h19.594l3.465,11.605c0.02,0.065,0.04,0.13,0.062,0.195
		c1.221,3.649,4.554,6.004,8.49,6.004c5.01,0,10.37-3.707,10.37-9.225c0-0.616-0.082-1.13-0.172-1.544
		C170.628,289.397,170.56,289.098,170.468,288.804z M134.372,264.318l4.316-14.255l4.281,14.255H134.372z"/>
	<path style="fill:#FFFFFF;" d="M404.25,286.414l-16.417-30.273l16.049-29.927c0.95-1.676,1.432-3.441,1.432-5.249
		c0-5.173-4.509-9.225-10.266-9.225c-5.374,0-7.911,4.754-9.039,6.869l-9.494,18.134l-9.534-18.204
		c-1.083-2.034-3.621-6.797-9-6.797c-5.758,0-10.266,4.053-10.266,9.225c0,1.786,0.467,3.525,1.389,5.173l15.996,30.003
		l-16.328,30.286c-0.031,0.057-0.061,0.115-0.09,0.172c-0.721,1.443-1.071,2.894-1.071,4.437c0,5.683,5.41,9.644,10.266,9.644
		c5.399,0,7.768-4.74,8.715-6.637l9.923-18.773l9.858,18.649c1.012,2.023,3.382,6.762,8.78,6.762c4.856,0,10.266-3.961,10.266-9.644
		c0-1.548-0.354-3.004-1.077-4.448C404.311,286.528,404.28,286.471,404.25,286.414z"/>
	<path style="fill:#FFFFFF;" d="M240.539,211.947c-4.509,0-8.218,2.737-11.028,8.141l-12.398,23.932l-12.403-23.941
		c-1.046-2.011-4.229-8.131-11.025-8.131c-5.587,0-9.641,4.011-9.641,9.539v70.073c0,5.08,4.144,8.912,9.641,8.912
		c5.407,0,9.643-3.914,9.643-8.912v-33.463l5.497,10.56c2.537,4.763,6.215,5.475,8.181,5.475c3.413,0,6.434-1.994,8.301-5.492
		l5.592-10.575v33.497c0,4.997,4.236,8.912,9.643,8.912c5.497,0,9.643-3.832,9.643-8.912v-70.073
		C250.182,215.869,246.216,211.947,240.539,211.947z"/>
</g>
<path style="fill:#3D6DEB;" d="M23.273,66.494C10.42,66.494,0,76.914,0,89.767v332.466c0,12.853,10.42,23.273,23.273,23.273H256
	V66.494H23.273z M160.475,300.47c-3.936,0-7.269-2.355-8.49-6.004c-0.022-0.065-0.042-0.13-0.062-0.195l-3.465-11.605h-19.594
	l-3.438,11.512c-1.029,3.772-4.493,6.293-8.682,6.293c-4.887,0-10.162-3.486-10.162-9.12c0-0.456,0-1.544,0.448-2.779l21.69-70.474
	c1.291-4.125,5.21-6.774,9.992-6.774c4.762,0,8.707,2.605,10.052,6.636l21.703,70.844c0.092,0.293,0.16,0.594,0.205,0.897
	c0.092,0.416,0.172,0.928,0.172,1.544C170.845,296.764,165.483,300.47,160.475,300.47z M250.182,291.558
	c0,5.08-4.146,8.912-9.643,8.912c-5.407,0-9.643-3.914-9.643-8.912v-33.497l-5.592,10.575c-1.865,3.499-4.886,5.492-8.301,5.492
	c-1.967,0-5.646-0.712-8.181-5.475l-5.497-10.56v33.463c0,4.997-4.234,8.912-9.643,8.912c-5.497,0-9.641-3.832-9.641-8.912v-70.073
	c0-5.528,4.054-9.539,9.641-9.539c6.796,0,9.979,6.121,11.025,8.131l12.403,23.941l12.398-23.932
	c2.81-5.404,6.519-8.141,11.028-8.141c5.677,0,9.643,3.921,9.643,9.539v70.074H250.182z"/>
<g>
</g>
<g>
</g>
<g>
</g>
<g>
</g>
<g>
</g>
<g>
</g>
<g>
</g>
<g>
</g>
<g>
</g>
<g>
</g>
<g>
</g>
<g>
</g>
<g>
</g>
<g>
</g>
<g>
</g>
</svg>
